<?xml version="1.0" encoding="UTF-8"?>
<svg width="18px" height="10px" viewBox="0 0 18 10" version="1.1" xmlns="http://www.w3.org/2000/svg" xmlns:xlink="http://www.w3.org/1999/xlink">
    <!-- Generator: Sketch 43.2 (39069) - http://www.bohemiancoding.com/sketch -->
    <title>blocked-icon</title>
    <desc>Created with Sketch.</desc>
    <defs></defs>
    <g id="Blockers" stroke="none" stroke-width="1" fill="none" fill-rule="evenodd">
        <g id="blockers-icons" transform="translate(-175.000000, -39.000000)">
            <g id="blocked-icon" transform="translate(175.000000, 39.000000)">
                <path d="M7.71336935,3.51023845 C7.12253998,2.03890207 5.68259428,1 4,1 C1.790861,1 0,2.790861 0,5 C0,7.209139 1.790861,9 4,9 C5.6822751,9 7.12199367,7.96149204 7.71303303,6.49059882 L7.61560595,6.4053516 C6.7520259,5.64973211 6.74924,4.35383705 7.61560595,3.59577994 L7.71336935,3.51023845 Z" id="Combined-Shape" fill="#F7A29B"></path>
                <path d="M13.8114863,0.51078702 C13.8114863,-0.0456677263 13.4736973,-0.201203133 13.066098,0.155440068 L8.27410411,4.34836228 C7.86243752,4.70856432 7.86650484,5.29612606 8.27410411,5.65276927 L13.066098,9.84569147 C13.4777646,10.2058935 13.8114863,10.0530584 13.8114863,9.49034452 L13.8114863,7.19949745 L17.0073807,7.19949745 C17.5555892,7.19949745 18,6.7617352 18,6.20155418 L18,3.79957736 C18,3.24842851 17.5517557,2.80163409 17.0073807,2.80163409 L13.8114863,2.80163409 L13.8114863,0.51078702 Z" id="Shape-Copy-3" fill="#F04538" fill-rule="nonzero"></path>
            </g>
        </g>
    </g>
</svg>