<?xml version="1.0" encoding="UTF-8"?>
<svg width="18px" height="10px" viewBox="0 0 18 10" version="1.1" xmlns="http://www.w3.org/2000/svg" xmlns:xlink="http://www.w3.org/1999/xlink">
    <!-- Generator: Sketch 51.1 (57501) - http://www.bohemiancoding.com/sketch -->
    <title>Group 2</title>
    <desc>Created with Sketch.</desc>
    <defs></defs>
    <g id="Blocked-panel" stroke="none" stroke-width="1" fill="none" fill-rule="evenodd">
        <g id="Group-2" transform="translate(-3.000000, -7.000000)">
            <rect id="Rectangle-5" fill="#D8D8D8" opacity="0" x="0" y="0" width="24" height="24"></rect>
            <path d="M11.6170643,13.9224369 C11.8637689,13.3306148 12,12.6812166 12,12 C12,11.3188847 11.8638094,10.6695783 11.6171743,10.0778271 C11.7377473,10.027603 11.8702724,10 12.0093689,10 L15,10 L15,7.99895656 C15,7.44266033 15.3456863,7.28807188 15.7721119,7.64342655 L20.2278881,11.3565734 C20.6602228,11.7168523 20.6543137,12.2880719 20.2278881,12.6434266 L15.7721119,16.3565734 C15.3397772,16.7168523 15,16.5527519 15,16.0010434 L15,14 L12.0093689,14 C11.869497,14 11.7371156,13.9724034 11.6170643,13.9224369 Z" id="Combined-Shape" fill="#122640" fill-rule="nonzero"></path>
            <circle id="Oval" fill="#88929F" cx="7" cy="12" r="4"></circle>
        </g>
    </g>
</svg>