<?xml version="1.0" encoding="UTF-8"?>
<svg width="18px" height="13px" viewBox="0 0 18 13" version="1.1" xmlns="http://www.w3.org/2000/svg" xmlns:xlink="http://www.w3.org/1999/xlink">
    <!-- Generator: Sketch 51.1 (57501) - http://www.bohemiancoding.com/sketch -->
    <title>combo_blocker</title>
    <desc>Created with Sketch.</desc>
    <defs></defs>
    <g id="Blocked-panel" stroke="none" stroke-width="1" fill="none" fill-rule="evenodd">
        <g id="combo_blocker" transform="translate(-3.000000, -5.000000)">
            <g id="Group-5">
                <rect id="Rectangle-5" fill="#D8D8D8" opacity="0" x="0" y="0" width="24" height="24" rx="2"></rect>
                <g id="Group" transform="translate(3.000000, 7.000000)" fill="#F7A29B">
                    <g id="Group-22-Copy" transform="translate(0.000000, 0.500000)">
                        <circle id="Oval" cx="4" cy="4" r="4"></circle>
                    </g>
                </g>
            </g>
            <path d="M15.8561131,5.68940331 C15.8561131,4.98981635 15.4327629,4.7889801 14.8980752,5.25160243 L12.3989268,7.41391514 C11.869817,7.87171134 11.8642391,8.60911952 12.3989268,9.07174185 L14.8980752,11.2340546 C15.4271849,11.6918508 15.8561131,11.4963853 15.8561131,10.7962537 L15.8561131,9.77088426 L19.3825539,9.77088426 C20.0766206,9.77088426 20.6392728,9.2103463 20.6392728,8.51020248 L20.6392728,7.97545451 C20.6392728,7.27919919 20.0717984,6.71477273 19.3825539,6.71477273 L15.8561131,6.71477273 L15.8561131,5.68940331 Z" id="Shape-Copy" fill="#F04538"></path>
            <path d="M20.6010732,15.5860849 C21.130183,15.1282887 21.1357609,14.3908805 20.6010732,13.9282581 L18.1019248,11.7659454 C17.5728151,11.3081492 17.1438869,11.5036147 17.1438869,12.2037463 L17.1438869,13.2291157 L13.6174461,13.2291157 C12.9233794,13.2291157 12.3607272,13.7896537 12.3607272,14.4897975 L12.3607272,15.0245455 C12.3607272,15.7208008 12.9282016,16.2852273 13.6174461,16.2852273 L17.1438869,16.2852273 L17.1438869,17.3105967 C17.1438869,18.0101836 17.5672371,18.2110199 18.1019248,17.7483976 L20.6010732,15.5860849 Z" id="Combined-Shape" fill="#122640" fill-rule="nonzero"></path>
        </g>
    </g>
</svg>