<?xml version="1.0" encoding="UTF-8" standalone="no"?>
<svg width="13px" height="17px" viewBox="0 0 13 17" version="1.1" xmlns="http://www.w3.org/2000/svg" xmlns:xlink="http://www.w3.org/1999/xlink" xmlns:sketch="http://www.bohemiancoding.com/sketch/ns">
    <defs></defs>
    <g id="Page-1" stroke="none" stroke-width="1" fill="none" fill-rule="evenodd" sketch:type="MSPage">
        <g id="Fill-1-+-Fill-2" sketch:type="MSLayerGroup" fill="#FFFFFF">
            <path d="M5.2,2.60812854 C5.2,1.66559546 5.78367347,0.9 6.5,0.9 C7.21632653,0.9 7.8,1.66559546 7.8,2.60812854 C7.8,2.63875236 7.79469388,2.66937618 7.79204082,2.7 C7.59040816,2.64215501 7.37816327,2.60812854 7.15,2.60812854 L5.85,2.60812854 C5.62183673,2.60812854 5.40959184,2.64215501 5.20795918,2.7 C5.20530612,2.66937618 5.2,2.63875236 5.2,2.60812854 L5.2,2.60812854 Z M11.05,8.22857143 C11.05,7.05930563 10.572449,3.41217985 8.42081633,2.35492316 C8.43408163,2.25657371 8.45,2.15822425 8.45,2.05714286 C8.45,0.920660216 7.57714286,0 6.5,0 C5.42285714,0 4.55,0.920660216 4.55,2.05714286 C4.55,2.15822425 4.56591837,2.25657371 4.57918367,2.35492316 C2.42755102,3.41217985 1.95,7.05930563 1.95,8.22857143 C1.95,10.2857143 0,13.0285714 0,13.0285714 L0,14.4 L13,14.4 L13,13.0285714 C13,13.0285714 11.05,10.2857143 11.05,8.22857143 L11.05,8.22857143 Z" id="Fill-1" sketch:type="MSShapeGroup"></path>
            <path d="M6.6,16.8 C7.88450704,16.8 8.95492958,16.025498 9.2,15 L4,15 C4.24507042,16.025498 5.31549296,16.8 6.6,16.8" id="Fill-2" sketch:type="MSShapeGroup"></path>
        </g>
    </g>
</svg>
