<?xml version="1.0" encoding="UTF-8"?>
<svg width="14px" height="17px" viewBox="0 0 14 17" version="1.1" xmlns="http://www.w3.org/2000/svg" xmlns:xlink="http://www.w3.org/1999/xlink">
  <!-- Generator: Sketch 41 (35326) - http://www.bohemiancoding.com/sketch -->
  <title>attachment</title>
  <desc>Created with Sketch.</desc>
  <defs></defs>
  <g id="v2" stroke="none" stroke-width="1" fill="none" fill-rule="evenodd">
    <g id="attachments-closeup-v2" transform="translate(-73.000000, -1891.000000)" fill="#666569">
      <path d="M74.4012205,1898.73375 L80.8542801,1892.0544 C82.212516,1890.64853 84.4126355,1890.64853 85.7708714,1892.0544 C87.1291072,1893.46027 87.1291072,1895.73754 85.7708714,1897.14341 L80.5470171,1902.55053 C79.6988393,1903.42837 78.3221815,1903.42837 77.4740804,1902.55053 C76.6259794,1901.67269 76.6259794,1900.24775 77.4740804,1899.36983 L82.0834087,1894.59894 L83.3126141,1895.87117 L78.6479432,1900.69935 C78.3099002,1901.04924 78.9245029,1901.6854 79.2625458,1901.3355 L84.5417427,1895.87117 C85.217752,1895.17146 85.217752,1894.02643 84.5417427,1893.32663 C83.8656567,1892.62692 82.7594947,1892.62692 82.0834087,1893.32663 L75.6303491,1900.00599 C74.444205,1901.23373 74.444205,1903.23118 75.6303491,1904.45892 C76.8164931,1905.68666 78.7462704,1905.68666 79.9324144,1904.45892 L85.7708714,1898.41564 L87,1899.68795 L81.1615431,1905.73115 C79.2932491,1907.66496 76.2695144,1907.66496 74.4012205,1905.73115 C72.5329265,1903.79734 72.5329265,1900.66757 74.4012205,1898.73375 Z" id="attachment"></path>
    </g>
  </g>
</svg>
