<?xml version="1.0" encoding="UTF-8"?>
<svg width="12px" height="12px" viewBox="0 0 12 12" version="1.1" xmlns="http://www.w3.org/2000/svg" xmlns:xlink="http://www.w3.org/1999/xlink">
    <!-- Generator: Sketch 42 (36781) - http://www.bohemiancoding.com/sketch -->
    <title></title>
    <desc>Created with Sketch.</desc>
    <defs></defs>
    <g id="Page-1" stroke="none" stroke-width="1" fill="none" fill-rule="evenodd">
        <path d="M5.8984375,7.25 C5.8984375,7.31770867 5.87239609,7.37760391 5.8203125,7.4296875 L3.2265625,10.0234375 L4.3515625,11.1484375 C4.45052133,11.2473963 4.5,11.3645827 4.5,11.5 C4.5,11.6354173 4.45052133,11.7526037 4.3515625,11.8515625 C4.25260367,11.9505213 4.13541734,12 4,12 L0.5,12 C0.364582656,12 0.247396328,11.9505213 0.1484375,11.8515625 C0.0494786719,11.7526037 0,11.6354173 0,11.5 L0,8 C0,7.86458266 0.0494786719,7.74739633 0.1484375,7.6484375 C0.247396328,7.54947867 0.364582656,7.5 0.5,7.5 C0.635417344,7.5 0.752603672,7.54947867 0.8515625,7.6484375 L1.9765625,8.7734375 L4.5703125,6.1796875 C4.62239609,6.12760391 4.68229133,6.1015625 4.75,6.1015625 C4.81770867,6.1015625 4.87760391,6.12760391 4.9296875,6.1796875 L5.8203125,7.0703125 C5.87239609,7.12239609 5.8984375,7.18229133 5.8984375,7.25 Z M12,0.5 L12,4 C12,4.13541734 11.9505213,4.25260367 11.8515625,4.3515625 C11.7526037,4.45052133 11.6354173,4.5 11.5,4.5 C11.3645827,4.5 11.2473963,4.45052133 11.1484375,4.3515625 L10.0234375,3.2265625 L7.4296875,5.8203125 C7.37760391,5.87239609 7.31770867,5.8984375 7.25,5.8984375 C7.18229133,5.8984375 7.12239609,5.87239609 7.0703125,5.8203125 L6.1796875,4.9296875 C6.12760391,4.87760391 6.1015625,4.81770867 6.1015625,4.75 C6.1015625,4.68229133 6.12760391,4.62239609 6.1796875,4.5703125 L8.7734375,1.9765625 L7.6484375,0.8515625 C7.54947867,0.752603672 7.5,0.635417344 7.5,0.5 C7.5,0.364582656 7.54947867,0.247396328 7.6484375,0.1484375 C7.74739633,0.0494786719 7.86458266,0 8,0 L11.5,0 C11.6354173,0 11.7526037,0.0494786719 11.8515625,0.1484375 C11.9505213,0.247396328 12,0.364582656 12,0.5 Z" id="" fill="#000000"></path>
    </g>
</svg>