<?xml version="1.0" encoding="UTF-8"?>
<svg width="20px" height="14px" viewBox="0 0 20 14" version="1.1" xmlns="http://www.w3.org/2000/svg" xmlns:xlink="http://www.w3.org/1999/xlink">
    <!-- Generator: Sketch 49.3 (51167) - http://www.bohemiancoding.com/sketch -->
    <title>Group 3 Copy</title>
    <desc>Created with Sketch.</desc>
    <defs>
        <rect id="path-1" x="0" y="0" width="26" height="26" rx="2"></rect>
    </defs>
    <g id="story-fields" stroke="none" stroke-width="1" fill="none" fill-rule="evenodd">
        <g id="story-description-003" transform="translate(-130.000000, -451.000000)">
            <g id="Group-3-Copy" transform="translate(127.000000, 443.000000)">
                <g id="Rectangle-8" opacity="0">
                    <use fill="#FFFFFF" fill-rule="evenodd" xlink:href="#path-1"></use>
                    <rect stroke="#DDDDDD" stroke-width="1" x="-0.5" y="-0.5" width="27" height="27" rx="2"></rect>
                </g>
                <path d="M15,12 L3,12 L3,14 L15,14 L15,12 L15,12 Z M15,8 L3,8 L3,10 L15,10 L15,8 L15,8 Z M19,16 L19,12 L17,12 L17,16 L13,16 L13,18 L17,18 L17,22 L19,22 L19,18 L23,18 L23,16 L19,16 L19,16 Z M3,18 L11,18 L11,16 L3,16 L3,18 L3,18 Z" id="Icon" fill="#666569"></path>
            </g>
        </g>
    </g>
</svg>