<?xml version="1.0" encoding="UTF-8"?>
<svg width="23px" height="23px" viewBox="0 0 23 23" version="1.1" xmlns="http://www.w3.org/2000/svg" xmlns:xlink="http://www.w3.org/1999/xlink">
    <!-- Generator: Sketch 41.2 (35397) - http://www.bohemiancoding.com/sketch -->
    <title>emoji-picker</title>
    <desc>Created with Sketch.</desc>
    <defs></defs>
    <g id="Page-1" stroke="none" stroke-width="1" fill="none" fill-rule="evenodd">
        <g id="emoji-picker" fill="#666569">
            <path d="M8.6875,10.5625 C9.203125,10.5625 9.625,10.140625 9.625,9.625 C9.625,9.109375 9.203125,8.6875 8.6875,8.6875 C8.171875,8.6875 7.75,9.109375 7.75,9.625 C7.75,10.140625 8.171875,10.5625 8.6875,10.5625 Z M14.3125,10.5625 C14.828125,10.5625 15.25,10.140625 15.25,9.625 C15.25,9.109375 14.828125,8.6875 14.3125,8.6875 C13.796875,8.6875 13.375,9.109375 13.375,9.625 C13.375,10.140625 13.796875,10.5625 14.3125,10.5625 Z M11.5,15.71875 C13.50625,15.71875 15.175,14.3125 15.60625,12.4375 L7.39375,12.4375 C7.825,14.3125 9.49375,15.71875 11.5,15.71875 Z M11.5,4 C7.346875,4 4,7.35625 4,11.5 C4,15.64375 7.346875,19 11.5,19 C15.653125,19 19,15.64375 19,11.5 C19,7.35625 15.64375,4 11.5,4 Z M11.5,17.59375 C8.134375,17.59375 5.40625,14.865625 5.40625,11.5 C5.40625,8.134375 8.134375,5.40625 11.5,5.40625 C14.865625,5.40625 17.59375,8.134375 17.59375,11.5 C17.59375,14.865625 14.865625,17.59375 11.5,17.59375 Z" id="Shape"></path>
        </g>
    </g>
</svg>
