<?xml version="1.0" encoding="UTF-8" standalone="no"?>
<svg
   xmlns:dc="http://purl.org/dc/elements/1.1/"
   xmlns:cc="http://creativecommons.org/ns#"
   xmlns:rdf="http://www.w3.org/1999/02/22-rdf-syntax-ns#"
   xmlns:svg="http://www.w3.org/2000/svg"
   xmlns="http://www.w3.org/2000/svg"
   id="svg2342"
   version="1.1"
   viewBox="0 0 210 297"
   height="297mm"
   width="210mm">
  <defs
     id="defs2336" />
  <metadata
     id="metadata2339">
    <rdf:RDF>
      <cc:Work
         rdf:about="">
        <dc:format>image/svg+xml</dc:format>
        <dc:type
           rdf:resource="http://purl.org/dc/dcmitype/StillImage" />
        <dc:title></dc:title>
      </cc:Work>
    </rdf:RDF>
  </metadata>
  <g
     id="layer1">
    <g
       id="hOxLT7VY_expand_pallet"
       style="display:inline"
       transform="translate(7.6798552,121.60457)">
      <rect
         style="opacity:1;fill:#ffffff;fill-opacity:1;stroke:#000000;stroke-width:0.26458332;stroke-miterlimit:4;stroke-dasharray:none;stroke-dashoffset:0;stroke-opacity:1"
         id="rect7305-17"
         width="1.8851564"
         height="1.8851562"
         x="20.812307"
         y="-78.889366"
         transform="rotate(90)" />
      <g
         id="g7707"
         transform="translate(-0.03307292,0.02480469)">
        <path
           id="path7307-5"
           d="m 79.179894,22.92789 0.597236,0.630556"
           style="fill:none;stroke:#000000;stroke-width:0.26458332;stroke-linecap:butt;stroke-linejoin:miter;stroke-miterlimit:4;stroke-dasharray:none;stroke-opacity:1" />
        <path
           style="display:inline;opacity:1;fill:#000000;fill-opacity:1;stroke:none;stroke-width:0.26458332;stroke-miterlimit:4;stroke-dasharray:none;stroke-dashoffset:0;stroke-opacity:1"
           d="m 79.177485,23.678897 c 0,0.036 0.02911,0.06511 0.06511,0.06511 h 0.663525 c 0.036,0 0.06511,-0.02911 0.06511,-0.06511 V 23.01537 c 0,-0.0176 -0.0073,-0.03328 -0.0186,-0.04496 -0.001,-7.94e-4 -0.0021,-0.0013 -0.0031,-0.0021 -0.0089,-0.0082 -0.02108,-0.01177 -0.03359,-0.01394 -0.0273,-0.0048 -0.05634,0.0016 -0.07752,0.02273 l -0.636137,0.636653 c -0.01524,0.01524 -0.02302,0.03444 -0.0248,0.05426 z"
           id="rect6513-2-7-4" />
      </g>
      <path
         style="display:inline;opacity:1;fill:#ffffff;fill-opacity:1;stroke:#000000;stroke-width:0.26458332;stroke-miterlimit:4;stroke-dasharray:none;stroke-dashoffset:0;stroke-opacity:1"
         d="m 80.749173,23.574322 v 0 0.994273 l -1.004502,0.0052 h 0.0052 0.999297 z"
         id="rect7339-9-0" />
    </g>
  </g>
</svg>
