<?xml version="1.0" encoding="UTF-8" standalone="no"?>
<svg width="10px" height="10px" viewBox="0 0 10 10" version="1.1" xmlns="http://www.w3.org/2000/svg" xmlns:xlink="http://www.w3.org/1999/xlink">
    <!-- Generator: Sketch 3.8.2 (29753) - http://www.bohemiancoding.com/sketch -->
    <title>small-link</title>
    <desc>Created with Sketch.</desc>
    <defs></defs>
    <g id="Page-1" stroke="none" stroke-width="1" fill="none" fill-rule="evenodd">
        <g id="SVG-prepped-icons" transform="translate(-197.000000, -28.000000)">
            <g id="Group-29" transform="translate(196.000000, 26.000000)">
                <path d="M4.32877202,6.84667451 L8.03445616,6.84667451" id="Line" stroke="#000000" stroke-linecap="square" transform="translate(6.159456, 6.846675) rotate(-45.000000) translate(-6.159456, -6.846675) "></path>
                <path d="M7.72138333,6.06231098 L8.70203033,6.06231098 C9.53399394,6.06231098 10.2121093,5.38788022 10.2121093,4.56231098 C10.2121093,3.72905744 9.54083579,3.06231098 8.70203033,3.06231098 L7.72138333,3.06231098 M5.71441931,3.06231098 C6.17331574,2.45508763 6.90300811,2.06231098 7.72138333,2.06231098 L8.70203033,2.06231098 C10.0884198,2.06231098 11.2123106,3.17197304 11.2123106,4.56231098 C11.2123106,5.94302286 10.0835294,7.06231098 8.70203033,7.06231098 L8.39509334,7.06231098 L7.72138333,7.06231098 C6.89972124,7.06231098 6.17026175,6.67254251 5.71232326,6.06557792 L5.7123106,6.06231098 L7.72161798,6.06231098 L7.72161798,3.06231098 L5.71441931,3.06231098 Z" id="Combined-Shape" fill="#000000" transform="translate(8.462311, 4.562311) rotate(-45.000000) translate(-8.462311, -4.562311) "></path>
                <path d="M3.12128567,10.6123102 L4.10193267,10.6123102 C4.93389629,10.6123102 5.61201169,9.93787946 5.61201169,9.11231022 C5.61201169,8.27905668 4.94073813,7.61231022 4.10193267,7.61231022 L3.12128567,7.61231022 M1.11432165,7.61231022 C1.57321808,7.00508687 2.30291046,6.61231022 3.12128567,6.61231022 L4.10193267,6.61231022 C5.48832218,6.61231022 6.61221294,7.72197228 6.61221294,9.11231022 C6.61221294,10.4930221 5.48343171,11.6123102 4.10193267,11.6123102 L3.79499568,11.6123102 L3.12128567,11.6123102 C2.29962358,11.6123102 1.5701641,11.2225417 1.1122256,10.6155772 L1.11221294,10.6123102 L3.12152032,10.6123102 L3.12152032,7.61231022 L1.11432165,7.61231022 Z" id="Combined-Shape" fill="#000000" transform="translate(3.862213, 9.112310) rotate(-225.000000) translate(-3.862213, -9.112310) "></path>
            </g>
        </g>
    </g>
</svg>