<?xml version="1.0" encoding="UTF-8" standalone="no"?>
<svg width="10px" height="8px" viewBox="0 0 10 8" version="1.1" xmlns="http://www.w3.org/2000/svg" xmlns:xlink="http://www.w3.org/1999/xlink">
    <!-- Generator: Sketch 3.8.2 (29753) - http://www.bohemiancoding.com/sketch -->
    <title>story-id</title>
    <desc>Created with Sketch.</desc>
    <defs></defs>
    <g id="Page-1" stroke="none" stroke-width="1" fill="none" fill-rule="evenodd">
        <g id="SVG-prepped-icons" transform="translate(-158.000000, -30.000000)" fill="#000000">
            <path d="M158,37.8525391 L158,30 L159.283691,30 L159.283691,37.8525391 L158,37.8525391 Z M167.132053,33.8510742 C167.132053,35.1473047 166.772193,36.1382615 166.052463,36.8239746 C165.332733,37.5096877 164.296122,37.8525391 162.9426,37.8525391 L160.745822,37.8525391 L160.745822,30 L163.173557,30 C164.423238,30 165.395396,30.3365852 166.090061,31.0097656 C166.784726,31.6829461 167.132053,32.6300395 167.132053,33.8510742 L167.132053,33.8510742 Z M165.778537,33.894043 C165.778537,32.0141508 164.899477,31.0742188 163.14133,31.0742188 L162.029514,31.0742188 L162.029514,36.7729492 L162.9426,36.7729492 C164.833234,36.7729492 165.778537,35.8133234 165.778537,33.894043 L165.778537,33.894043 Z" id="ID"></path>
        </g>
    </g>
</svg>