<?xml version="1.0" encoding="utf-8"?>
<!-- Generator: Adobe Illustrator 18.1.1, SVG Export Plug-In . SVG Version: 6.00 Build 0)  -->
<svg version="1.1" id="Layer_1" xmlns:sketch="http://www.bohemiancoding.com/sketch/ns"
	 xmlns="http://www.w3.org/2000/svg" xmlns:xlink="http://www.w3.org/1999/xlink" x="0px" y="0px" viewBox="-295 387 20 20"
	 enable-background="new -295 387 20 20" xml:space="preserve">
<title>Rectangle 300 + Fill 1</title>
<desc>Created with Sketch.</desc>
<g id="Search-v8---clean" sketch:type="MSPage">
	<g id="My-Work" transform="translate(-963.000000, -44.000000)" sketch:type="MSArtboardGroup">
		<g id="Rectangle-300-_x2B_-Fill-1" transform="translate(963.000000, 44.000000)" sketch:type="MSLayerGroup">
			<path id="Fill-1" sketch:type="MSShapeGroup" fill="#888888" d="M-288.5,395.2c-1.1,2.2-0.2,4.9,1.9,6c2.2,1.1,4.9,0.2,6-1.9
				c0.7-1.4,0.8-2.5,0.2-3.9l-1,0.5c0.4,1.1,0.4,1.8-0.2,2.9c-0.8,1.6-2.8,2.3-4.5,1.5c-1.6-0.8-2.3-2.8-1.5-4.5
				c0.6-1.1,1.8-1.9,3.1-1.8l-0.1,1.7l2.7-2.1l-2.6-2.5l0,1.8C-286.1,392.7-287.7,393.7-288.5,395.2"/>
		</g>
	</g>
</g>
</svg>
